<svg xmlns="http://www.w3.org/2000/svg" viewBox="2306 -22063 35.666 25"><defs><style>.a{fill:#fff;}</style></defs><path class="a" d="M23.539,77.481A17.8,17.8,0,0,0,0,94.422a27.238,27.238,0,0,0,.713,6.42.767.767,0,0,0,.713.713H34.061a1.185,1.185,0,0,0,.892-.713,41.579,41.579,0,0,0,.713-6.42A17.669,17.669,0,0,0,23.539,77.481Zm-5.706,2.675a1.783,1.783,0,0,1,0,3.567,1.783,1.783,0,0,1,0-3.567ZM5.35,96.205a1.783,1.783,0,1,1,0-3.567,1.783,1.783,0,1,1,0,3.567Zm4.993-9.273a1.724,1.724,0,0,1-2.5,0,2.156,2.156,0,0,1-.178-2.675,1.724,1.724,0,0,1,2.5,0A2.156,2.156,0,0,1,10.343,86.932Zm7.49,11.056c-1.962,0-3.745-1.783-3.21-3.567s3.21-7.133,3.21-7.133,2.675,5.35,3.21,7.133S19.794,97.989,17.833,97.989ZM28,86.932a1.765,1.765,0,1,1,0-2.5A2.138,2.138,0,0,1,28,86.932Zm2.318,9.273A1.783,1.783,0,1,1,32.1,94.422,1.685,1.685,0,0,1,30.316,96.205Z" transform="translate(2306 -22139.555)"/></svg>