<svg xmlns="http://www.w3.org/2000/svg" viewBox="2306 -21784 24.167 25">
  <defs>
    <style>
      .cls-1 {
        fill: #fff;
      }
    </style>
  </defs>
  <g id="newspaper" transform="translate(2305 -21784)">
    <path id="Path_812" data-name="Path 812" class="cls-1" d="M33,4H23V6.5H33Zm-.833,1.667H23.833V4.833h8.333Z" transform="translate(-12.833 -2.333)"/>
    <rect id="Rectangle_913" data-name="Rectangle 913" class="cls-1" width="4.167" height="4.167" transform="translate(8.5 7.5)"/>
    <rect id="Rectangle_914" data-name="Rectangle 914" class="cls-1" width="4.167" height="4.167" transform="translate(17.667 17.5)"/>
    <path id="Path_813" data-name="Path 813" class="cls-1" d="M25.163,5.4V0h-20V12.5H1v10A2.5,2.5,0,0,0,3.5,25H22.667a2.5,2.5,0,0,0,2.5-2.5V5.437c0-.007,0-.013,0-.02S25.163,5.4,25.163,5.4Zm-20,17.1a1.667,1.667,0,0,1-3.333,0V13.333H5.167Zm9.583,0H8.5a.417.417,0,1,1,0-.833h6.25a.417.417,0,1,1,0,.833Zm-7.083-10V6.667H13.5V12.5ZM14.75,20H8.5a.417.417,0,1,1,0-.833h6.25a.417.417,0,1,1,0,.833Zm0-2.5H8.5a.417.417,0,1,1,0-.833h6.25a.417.417,0,1,1,0,.833Zm7.917,5H16.833V16.667h5.833ZM22.25,15H8.5a.417.417,0,0,1,0-.833H22.25a.417.417,0,0,1,0,.833Zm0-2.5H15.583a.417.417,0,1,1,0-.833H22.25a.417.417,0,0,1,0,.833Zm0-2.5H15.583a.417.417,0,0,1,0-.833H22.25a.417.417,0,0,1,0,.833Zm0-2.5H15.583a.417.417,0,1,1,0-.833H22.25a.417.417,0,0,1,0,.833ZM24.329,5H6V.833H24.329Z"/>
  </g>
</svg>
