<svg xmlns="http://www.w3.org/2000/svg" viewBox="2306 -21970 33.796 25"><defs><style>.a{fill:#fff;}</style></defs><path class="a" d="M11.343,93.07A6.713,6.713,0,1,0,4.63,86.357,6.713,6.713,0,0,0,11.343,93.07Zm3.179-4.059a3.194,3.194,0,0,1-3.181,1.769,3.194,3.194,0,0,1-3.181-1.769ZM33.8,95.857v1.761a.8.8,0,0,1-.431.671c-.924.411-3.445,1.253-8.6,1.253-.247,0-.482,0-.717-.007a7.857,7.857,0,0,0-6.8-7.31,5.152,5.152,0,0,1,3.06-1.49.428.428,0,0,1,.257.07,7.129,7.129,0,0,0,8.395,0,.427.427,0,0,1,.257-.07A5.174,5.174,0,0,1,33.8,95.857Zm-11.111,4.157v2.213a1,1,0,0,1-.541.842c-1.161.517-4.329,1.574-10.8,1.574S1.7,103.586.541,103.07A1,1,0,0,1,0,102.227v-2.213a6.5,6.5,0,0,1,5.746-6.435.537.537,0,0,1,.323.089,8.957,8.957,0,0,0,10.547,0,.537.537,0,0,1,.323-.089A6.5,6.5,0,0,1,22.685,100.014Zm2.083-20.37a5.343,5.343,0,1,0,5.343,5.343A5.343,5.343,0,0,0,24.769,79.644Zm0,8.813A2.622,2.622,0,0,1,22.157,87H27.38A2.621,2.621,0,0,1,24.769,88.457Z" transform="translate(2306 -22049.645)"/></svg>