<svg xmlns="http://www.w3.org/2000/svg" viewBox="2306 -21877 25 25"><defs><style>.a{fill:#fff;}</style></defs><g transform="translate(2306 -21877)"><path class="a" d="M16.895,0H.732A.732.732,0,0,0,0,.732V2.246a.732.732,0,0,0,.732.732H16.895a.732.732,0,0,0,.732-.732V.732A.732.732,0,0,0,16.895,0Z"/><path class="a" d="M366.176,91a2.192,2.192,0,0,0-.732,4.26v3.065h-1.649a2.194,2.194,0,0,0-2.062-1.465H361v4.395h.732a2.194,2.194,0,0,0,2.062-1.465h2.381a.732.732,0,0,0,.732-.732v-3.8a2.192,2.192,0,0,0-.732-4.26Z" transform="translate(-343.373 -86.557)"/><rect class="a" width="5.908" height="1.465" transform="translate(5.859 19.092)"/><path class="a" d="M16.895,331H.732a.732.732,0,0,0-.732.732v7.373a.732.732,0,0,0,.732.732H16.895a.732.732,0,0,0,.732-.732v-7.373A.732.732,0,0,0,16.895,331Zm-3.662,5.127a.732.732,0,0,1-.732.732H5.127a.732.732,0,0,1-.732-.732V333.2a.732.732,0,0,1,.732-.732H12.5a.732.732,0,0,1,.732.732Z" transform="translate(0 -314.838)"/><rect class="a" width="4.395" height="4.395" transform="translate(1.465 7.373)"/><rect class="a" width="2.979" height="4.395" transform="translate(7.324 7.373)"/><rect class="a" width="14.697" height="1.465" transform="translate(1.465 4.443)"/><path class="a" d="M30,271v1.465H44.7V271Z" transform="translate(-28.535 -257.768)"/><rect class="a" width="4.395" height="4.395" transform="translate(11.768 7.373)"/></g></svg>